<?xml version="1.0" standalone="no"?>
<!DOCTYPE svg PUBLIC "-//W3C//DTD SVG 20010904//EN"
 "http://www.w3.org/TR/2001/REC-SVG-20010904/DTD/svg10.dtd">
<svg version="1.0" xmlns="http://www.w3.org/2000/svg"
 width="512.000000pt" height="512.000000pt" viewBox="0 0 512.000000 512.000000"
 preserveAspectRatio="xMidYMid meet">

<g transform="translate(0.000000,512.000000) scale(0.100000,-0.100000)"
fill="#000000" stroke="none">
<path d="M2070 4190 l0 -160 -325 0 -325 0 0 -165 0 -165 -165 0 -165 0 0
-325 0 -325 -160 0 -160 0 0 -490 0 -490 160 0 160 0 0 -325 0 -325 165 0 165
0 0 -165 0 -165 325 0 325 0 0 -160 0 -160 490 0 490 0 0 160 0 160 325 0 325
0 0 165 0 165 165 0 165 0 0 325 0 325 160 0 160 0 0 490 0 490 -160 0 -160 0
0 325 0 325 -165 0 -165 0 0 165 0 165 -325 0 -325 0 0 160 0 160 -490 0 -490
0 0 -160z m980 -325 l0 -165 325 0 325 0 0 -325 0 -325 165 0 165 0 0 -490 0
-490 -165 0 -165 0 0 -325 0 -325 -325 0 -325 0 0 -165 0 -165 -490 0 -490 0
0 165 0 165 -325 0 -325 0 0 325 0 325 -165 0 -165 0 0 490 0 490 165 0 165 0
0 325 0 325 325 0 325 0 0 165 0 165 490 0 490 0 0 -165z"/>
<path d="M2400 2890 l0 -490 160 0 160 0 0 490 0 490 -160 0 -160 0 0 -490z"/>
<path d="M2400 1905 l0 -165 160 0 160 0 0 165 0 165 -160 0 -160 0 0 -165z"/>
</g>
</svg>
