<?xml version="1.0" standalone="no"?>
<!DOCTYPE svg PUBLIC "-//W3C//DTD SVG 20010904//EN"
 "http://www.w3.org/TR/2001/REC-SVG-20010904/DTD/svg10.dtd">
<svg version="1.0" xmlns="http://www.w3.org/2000/svg"
 width="512.000000pt" height="512.000000pt" viewBox="0 0 512.000000 512.000000"
 preserveAspectRatio="xMidYMid meet">

<g transform="translate(0.000000,512.000000) scale(0.100000,-0.100000)"
fill="#000000" stroke="none">
<path d="M1780 4565 l0 -165 -165 0 -165 0 0 -170 0 -170 -560 0 -560 0 0
-165 0 -165 -165 0 -165 0 0 -1670 0 -1670 2560 0 2560 0 0 1670 0 1670 -165
0 -165 0 0 165 0 165 -560 0 -560 0 0 170 0 170 -165 0 -165 0 0 165 0 165
-780 0 -780 0 0 -165z m1560 -335 l0 -170 165 0 165 0 0 -165 0 -165 560 0
560 0 -2 -1502 -3 -1503 -2225 0 -2225 0 -3 1503 -2 1502 560 0 560 0 0 165 0
165 165 0 165 0 0 170 0 170 780 0 780 0 0 -170z"/>
<path d="M1890 3450 l0 -170 -165 0 -165 0 0 -165 0 -165 -170 0 -170 0 2
-667 3 -668 168 -3 167 -2 0 -165 0 -165 165 0 165 0 0 -165 0 -165 670 0 670
0 0 165 0 165 165 0 165 0 0 165 0 165 168 2 167 3 3 668 2 667 -170 0 -170 0
0 165 0 165 -165 0 -165 0 0 170 0 170 -670 0 -670 0 0 -170z m1340 -335 l0
-165 165 0 165 0 0 -670 0 -670 -165 0 -165 0 0 -165 0 -165 -670 0 -670 0 0
165 0 165 -165 0 -165 0 0 670 0 670 165 0 165 0 0 165 0 165 670 0 670 0 0
-165z"/>
</g>
</svg>
