<?xml version="1.0" standalone="no"?>
<!DOCTYPE svg PUBLIC "-//W3C//DTD SVG 20010904//EN"
 "http://www.w3.org/TR/2001/REC-SVG-20010904/DTD/svg10.dtd">
<svg version="1.0" xmlns="http://www.w3.org/2000/svg"
 width="512.000000pt" height="512.000000pt" viewBox="0 0 512.000000 512.000000"
 preserveAspectRatio="xMidYMid meet">

<g transform="translate(0.000000,512.000000) scale(0.100000,-0.100000)"
fill="#000000" stroke="none">
<path d="M2230 4955 l0 -165 330 0 330 0 0 165 0 165 -330 0 -330 0 0 -165z"/>
<path d="M670 4620 l0 -170 -170 0 -170 0 0 -275 0 -275 170 0 170 0 0 -335 0
-335 -167 -2 -168 -3 0 -165 0 -165 333 -3 332 -2 0 505 0 505 -165 0 -165 0
0 275 0 275 275 0 275 0 0 -165 0 -165 505 0 505 0 -2 333 -3 332 -165 0 -165
0 -3 -167 -2 -168 -335 0 -335 0 0 170 0 170 -275 0 -275 0 0 -170z"/>
<path d="M2897 4784 c-4 -4 -7 -155 -7 -336 l0 -328 505 0 505 0 0 165 0 165
275 0 275 0 0 -275 0 -275 -165 0 -165 0 0 -505 0 -505 333 2 332 3 0 165 0
165 -167 3 -168 2 0 335 0 335 170 0 170 0 0 275 0 275 -170 0 -170 0 0 170 0
170 -275 0 -275 0 0 -170 0 -170 -335 0 -335 0 -2 168 -3 167 -161 3 c-88 1
-163 -1 -167 -4z"/>
<path d="M2000 3615 l0 -165 -165 0 -165 0 0 -165 0 -165 -165 0 -165 0 0
-560 0 -560 165 0 165 0 0 -165 0 -165 165 0 165 0 0 -165 0 -165 560 0 560 0
0 165 0 165 165 0 165 0 0 165 0 165 165 0 165 0 0 560 0 560 -165 0 -165 0 0
165 0 165 -165 0 -165 0 0 165 0 165 -560 0 -560 0 0 -165z m1120 -330 l0
-165 165 0 165 0 0 -560 0 -560 -165 0 -165 0 0 -165 0 -165 -560 0 -560 0 0
165 0 165 -165 0 -165 0 0 560 0 560 165 0 165 0 0 165 0 165 560 0 560 0 0
-165z"/>
<path d="M0 2560 l0 -330 165 0 165 0 0 330 0 330 -165 0 -165 0 0 -330z"/>
<path d="M4790 2560 l0 -330 165 0 165 0 0 330 0 330 -165 0 -165 0 0 -330z"/>
<path d="M334 2217 c-2 -7 -3 -82 -2 -167 l3 -155 168 -3 167 -2 0 -335 0
-335 -170 0 -170 0 0 -275 0 -275 170 0 170 0 0 -170 0 -170 275 0 275 0 0
170 0 170 335 0 335 0 2 -167 3 -168 165 0 165 0 3 333 2 332 -505 0 -505 0 0
-165 0 -165 -275 0 -275 0 0 275 0 275 165 0 165 0 0 505 0 505 -330 0 c-261
0 -332 -3 -336 -13z"/>
<path d="M4120 1725 l0 -505 165 0 165 0 0 -275 0 -275 -275 0 -275 0 0 165 0
165 -505 0 -505 0 2 -332 3 -333 165 0 165 0 3 168 2 167 335 0 335 0 0 -170
0 -170 275 0 275 0 0 170 0 170 170 0 170 0 0 275 0 275 -170 0 -170 0 0 335
0 335 168 2 167 3 0 165 0 165 -332 3 -333 2 0 -505z"/>
<path d="M2230 165 l0 -165 330 0 330 0 0 165 0 165 -330 0 -330 0 0 -165z"/>
</g>
</svg>
